<svg xmlns="http://www.w3.org/2000/svg" xmlns:xlink="http://www.w3.org/1999/xlink" width="56.671" height="52.813" viewBox="0 0 56.671 52.813">
  <defs>
    <linearGradient id="linear-gradient" x1="-3.821" y1="-0.829" x2="1.874" y2="3.157" gradientUnits="objectBoundingBox">
      <stop offset="0.175" stop-color="#99aae7"/>
      <stop offset="1" stop-color="#5350f1"/>
    </linearGradient>
    <linearGradient id="linear-gradient-2" x1="-3.581" y1="0.463" x2="0.87" y2="3.51" xlink:href="#linear-gradient"/>
    <linearGradient id="linear-gradient-3" x1="-4.81" y1="1.07" x2="3.104" y2="6.826" xlink:href="#linear-gradient"/>
    <linearGradient id="linear-gradient-4" x1="-3.188" y1="-1.255" x2="0.881" y2="1.624" xlink:href="#linear-gradient"/>
    <linearGradient id="linear-gradient-5" x1="-0.384" y1="-0.014" x2="1.88" y2="1.166" xlink:href="#linear-gradient"/>
  </defs>
  <g id="Logo" transform="translate(-0.115 -0.101)">
    <path id="Path_1" data-name="Path 1" d="M49.7,36.272a5.764,5.764,0,0,0,4.1-1.955,6.23,6.23,0,0,0,1.685-4.369,6.23,6.23,0,0,0,1.685,4.369,5.818,5.818,0,0,0,4.11,1.955,5.744,5.744,0,0,0-2.921.946,6.3,6.3,0,0,0-2.106,2.3,6.5,6.5,0,0,0-.764,3.1A6.273,6.273,0,0,0,53.8,38.237a5.724,5.724,0,0,0-4.1-1.97Z" transform="translate(-16.525 -9.948)" fill="url(#linear-gradient)"/>
    <path id="Path_2" data-name="Path 2" d="M62.9,10.954a7.285,7.285,0,0,0,5.24-2.56A8.273,8.273,0,0,0,70.3,2.684a8.234,8.234,0,0,0,2.157,5.71,7.372,7.372,0,0,0,5.258,2.56,7.191,7.191,0,0,0-3.74,1.239,8.137,8.137,0,0,0-2.694,3.013,8.623,8.623,0,0,0-.981,4.057,8.291,8.291,0,0,0-2.157-5.73A7.279,7.279,0,0,0,62.9,10.954Z" transform="translate(-20.926 -0.861)" fill="url(#linear-gradient-2)"/>
    <path id="Path_3" data-name="Path 3" d="M43.447,4.48A4.21,4.21,0,0,0,46.4,3.124,4.221,4.221,0,0,0,47.608.1a4.221,4.221,0,0,0,1.213,3.023A4.254,4.254,0,0,0,51.779,4.48a4.266,4.266,0,0,0-2.1.653,4.391,4.391,0,0,0-2.064,3.745A4.244,4.244,0,0,0,46.4,5.845,4.2,4.2,0,0,0,43.452,4.48Z" transform="translate(-14.442)" fill="url(#linear-gradient-3)"/>
    <path id="Path_4" data-name="Path 4" d="M60.817,55.974a8.114,8.114,0,0,0,5.735-2.711,8.576,8.576,0,0,0,2.356-6.047,8.6,8.6,0,0,0,2.356,6.047,8.2,8.2,0,0,0,5.753,2.711,8.113,8.113,0,0,0-4.092,1.307,8.775,8.775,0,0,0-2.948,3.189,8.9,8.9,0,0,0-1.069,4.3A8.643,8.643,0,0,0,66.552,58.7a8.059,8.059,0,0,0-5.735-2.731Z" transform="translate(-20.232 -15.703)" fill="url(#linear-gradient-4)"/>
    <path id="Path_5" data-name="Path 5" d="M8.066,53.1A2.7,2.7,0,0,0,8.5,54.577l1.418,2.148a2.951,2.951,0,0,0,2.2,1.194h5.1a2.949,2.949,0,0,0,2.2-1.194l1.413-2.147a3.175,3.175,0,0,0,.442-1.48l.011-3.277H8.058Zm6.611-37.98A14.684,14.684,0,0,0,3.719,39.437,24.111,24.111,0,0,1,8.04,47.083c0,.021.008.043.01.065H21.306c0-.022.008-.043.01-.065a24.1,24.1,0,0,1,4.321-7.645,14.423,14.423,0,0,0,3.6-9.681A14.623,14.623,0,0,0,14.678,15.118Z" transform="translate(0 -5.005)" fill="url(#linear-gradient-5)"/>
    <path id="Path_6" data-name="Path 6" d="M19.395,28.809a5.985,5.985,0,0,1,1.834-1.995,5.054,5.054,0,0,1,6.864,1.78,5.14,5.14,0,0,1-1.654,7,5.15,5.15,0,0,0-.171-5.013A5.055,5.055,0,0,0,19.395,28.809Z" transform="translate(-6.426 -8.677)" fill="#fff" fill-rule="evenodd"/>
  </g>
</svg>
